<svg xmlns="http://www.w3.org/2000/svg" viewBox="0 0 200 200">
  <rect x="10" y="10" width="180" height="180" rx="26" fill="#0A0A0A" stroke="#0A0A0A" stroke-width="6"/>

  <path d="M100 38 L154 158 L46 158 Z" fill="none" stroke="#FFFFFF" stroke-width="4" stroke-linejoin="round"/>

  <g fill="none" stroke="#FFFFFF" stroke-width="4" stroke-linecap="round" stroke-linejoin="round">
    <path d="M95 158 L95 100"/>
    <path d="M105 158 L105 100"/>
    <path d="M95 100 L105 100"/>

    <path d="M100 100 L100 72"/>

    <path d="M95 124 L73 100 L73 80"/>
    <path d="M73 80 L65 69"/>
    <path d="M73 80 L81 69"/>

    <path d="M105 124 L127 100 L127 80"/>
    <path d="M127 80 L119 69"/>
    <path d="M127 80 L135 69"/>

    <path d="M95 158 L64 141 L64 158"/>
    <path d="M105 158 L136 141 L136 158"/>
    <path d="M100 158 L84 149"/>
    <path d="M100 158 L116 149"/>
  </g>

  <g fill="none" stroke="#FF2D95" stroke-width="4" stroke-linecap="round" stroke-linejoin="round">
    <path d="M100 72 L91 60"/>
    <path d="M100 72 L109 60"/>
  </g>
</svg>
