<svg xmlns="http://www.w3.org/2000/svg" viewBox="0 0 200 200">
  <rect x="10" y="10" width="180" height="180" rx="26" fill="#FFFFFF" stroke="#0A0A0A" stroke-width="6"/>

  <g stroke="#0A0A0A" stroke-width="5" stroke-linecap="round">
    <line x1="134" y1="100" x2="150" y2="100"/>
    <line x1="129" y1="117" x2="143" y2="125"/>
    <line x1="117" y1="129" x2="125" y2="143"/>
    <line x1="100" y1="134" x2="100" y2="150"/>
    <line x1="83" y1="129" x2="75" y2="143"/>
    <line x1="71" y1="117" x2="57" y2="125"/>
    <line x1="66" y1="100" x2="50" y2="100"/>
    <line x1="71" y1="83" x2="57" y2="75"/>
    <line x1="83" y1="71" x2="75" y2="57"/>
    <line x1="100" y1="66" x2="100" y2="50"/>
    <line x1="117" y1="71" x2="125" y2="57"/>
    <line x1="129" y1="83" x2="143" y2="75"/>
  </g>
  <g fill="#FFE500" stroke="#0A0A0A" stroke-width="3">
    <circle cx="150" cy="100" r="5"/>
    <circle cx="143" cy="125" r="5"/>
    <circle cx="125" cy="143" r="5"/>
    <circle cx="100" cy="150" r="5"/>
    <circle cx="75" cy="143" r="5"/>
    <circle cx="57" cy="125" r="5"/>
    <circle cx="50" cy="100" r="5"/>
    <circle cx="57" cy="75" r="5"/>
    <circle cx="75" cy="57" r="5"/>
    <circle cx="100" cy="50" r="5"/>
    <circle cx="125" cy="57" r="5"/>
    <circle cx="143" cy="75" r="5"/>
  </g>
  <circle cx="100" cy="100" r="34" fill="#FFE500" stroke="#0A0A0A" stroke-width="5"/>
  <g fill="#0A0A0A">
    <circle cx="92" cy="93" r="4.5"/>
    <circle cx="109" cy="97" r="4"/>
    <circle cx="99" cy="111" r="4.5"/>
  </g>

  <circle cx="100" cy="100" r="62" fill="none" stroke="#FF2D95" stroke-width="13"/>
  <line x1="56" y1="56" x2="144" y2="144" stroke="#FF2D95" stroke-width="13" stroke-linecap="round"/>
</svg>
