<svg xmlns="http://www.w3.org/2000/svg" viewBox="0 0 200 200">
  <rect x="10" y="10" width="180" height="180" rx="26" fill="#0A0A0A" stroke="#0A0A0A" stroke-width="6"/>
  <circle cx="100" cy="100" r="70" fill="none" stroke="#FF2D95" stroke-width="4"/>
  <circle cx="100" cy="100" r="46" fill="none" stroke="#FF2D95" stroke-width="3"/>
  <circle cx="100" cy="100" r="22" fill="none" stroke="#FF2D95" stroke-width="3"/>
  <line x1="30" y1="100" x2="170" y2="100" stroke="#FF2D95" stroke-width="3"/>
  <line x1="100" y1="30" x2="100" y2="170" stroke="#FF2D95" stroke-width="3"/>
  <path d="M100 100 L100 30 A70 70 0 0 1 149 51 Z" fill="#FFE500" opacity="0.85"/>
  <g fill="#FFFFFF">
    <circle cx="70" cy="128" r="4"/>
    <circle cx="132" cy="118" r="4"/>
    <circle cx="118" cy="150" r="4"/>
  </g>
  <g transform="translate(128,64)">
    <circle r="12" fill="#FF2D95" stroke="#FFFFFF" stroke-width="3"/>
    <g stroke="#FFFFFF" stroke-width="3" stroke-linecap="round">
      <line x1="0" y1="-12" x2="0" y2="-19"/>
      <line x1="0" y1="12" x2="0" y2="19"/>
      <line x1="-12" y1="0" x2="-19" y2="0"/>
      <line x1="12" y1="0" x2="19" y2="0"/>
      <line x1="-8.5" y1="-8.5" x2="-13.5" y2="-13.5"/>
      <line x1="8.5" y1="8.5" x2="13.5" y2="13.5"/>
      <line x1="-8.5" y1="8.5" x2="-13.5" y2="13.5"/>
      <line x1="8.5" y1="-8.5" x2="13.5" y2="-13.5"/>
    </g>
  </g>
</svg>
