<svg xmlns="http://www.w3.org/2000/svg" viewBox="0 0 200 200">
  <rect x="10" y="10" width="180" height="180" rx="26" fill="#0A0A0A" stroke="#0A0A0A" stroke-width="6"/>

  <path d="M60 174 Q56 156 100 156 Q144 156 140 174 Z" fill="#FFE500" stroke="#0A0A0A" stroke-width="4" stroke-linejoin="round"/>
  <path d="M138 166 L166 158 L140 172 Z" fill="#FFE500" stroke="#0A0A0A" stroke-width="4" stroke-linejoin="round"/>
  <path d="M60 168 Q42 164 50 182" fill="none" stroke="#0A0A0A" stroke-width="5" stroke-linecap="round"/>
  <circle cx="100" cy="153" r="5" fill="#FFE500" stroke="#0A0A0A" stroke-width="3"/>

  <path d="M92 152 C70 146 76 124 94 120 C82 112 86 100 100 100 C114 100 118 112 106 120 C124 124 130 146 108 152 Z"
        fill="#FF2D95" stroke="#0A0A0A" stroke-width="4" stroke-linejoin="round"/>

  <path d="M84 110 Q100 121 116 110 L112 123 Q100 131 88 123 Z" fill="#FF2D95" stroke="#0A0A0A" stroke-width="4" stroke-linejoin="round"/>
  <circle cx="85" cy="116" r="5.5" fill="#FFD6EC" stroke="#0A0A0A" stroke-width="3"/>
  <circle cx="115" cy="116" r="5.5" fill="#FFD6EC" stroke="#0A0A0A" stroke-width="3"/>

  <path d="M83 84 Q100 114 117 84 Q111 102 100 102 Q89 102 83 84 Z" fill="#FFD6EC" stroke="#0A0A0A" stroke-width="4" stroke-linejoin="round"/>

  <ellipse cx="100" cy="80" rx="20" ry="21" fill="#FFD6EC" stroke="#0A0A0A" stroke-width="4"/>
  <circle cx="93" cy="80" r="2.6" fill="#0A0A0A"/>
  <circle cx="107" cy="80" r="2.6" fill="#0A0A0A"/>
  <path d="M89 74 q4 -3 8 -1" fill="none" stroke="#0A0A0A" stroke-width="2.2" stroke-linecap="round"/>
  <path d="M103 73 q4 -2 8 1" fill="none" stroke="#0A0A0A" stroke-width="2.2" stroke-linecap="round"/>

  <path d="M78 78 Q76 44 100 44 Q124 44 122 78 Q100 64 78 78 Z" fill="#FF2D95" stroke="#0A0A0A" stroke-width="4" stroke-linejoin="round"/>
  <path d="M79 76 Q100 66 121 76" fill="none" stroke="#FFE500" stroke-width="5" stroke-linecap="round"/>
  <circle cx="100" cy="72" r="5" fill="#FFE500" stroke="#0A0A0A" stroke-width="3"/>
  <path d="M100 44 Q97 30 109 25" fill="none" stroke="#FFE500" stroke-width="4" stroke-linecap="round"/>
  <path d="M109 25 l3 4 4 -1 -2 4 3 3 -5 -1 -3 4 -1 -5 -4 -2 5 -2 Z" fill="#FFE500"/>

  <path d="M44 60 l2 5 5 1 -5 2 -1 5 -2 -5 -5 -1 5 -2 Z" fill="#FFFFFF"/>
  <path d="M160 96 l2 5 5 1 -5 2 -1 5 -2 -5 -5 -1 5 -2 Z" fill="#FFE500"/>
</svg>
